:FULLY-SPECIFIED
:FORCE-ALL-JOINTS-BE-3DOF
:DEGREES
2752
root -5.54876 13.9925 -28.3883 1242.01 -65.1879 -161.076
lfemur -59.3983 42.9115 -6.34049
ltibia 67.722 0 0
lfoot -2.38278 -1.24177 0
ltoes -31.3559 0 0
rfemur -30.8956 -18.5557 21.7088
rtibia 81.6371 0 0
rfoot -34.9255 -24.727 0
rtoes -14.5979 0 0
lowerback 15.7638 5.82389 0.554409
upperback -4.01086 8.13033 1.4837
thorax -13.472 3.80438 -0.86499
lowerneck -2.39871 9.61845 2.05968
upperneck 7.47678 12.5808 1.98195
head 2.79297 6.35058 0.685757
lclavicle 2.45695e-14 -6.23203e-15 0
lhumerus 3.55825 10.6594 83.9476
lradius 94.8026 0 0
lwrist -19.168 0 0
lhand -39.8068 387.61 0
lfingers 7.12502 0 0
lthumb -12.7815 -662.8 0
rclavicle 2.45695e-14 -6.23203e-15 0
rhumerus -57.8675 50.9148 -110.153
rradius 114.107 0 0
rwrist -84.6749 0 0
rhand 4.58649 -386.98 0
rfingers 7.12502 0 0
rthumb 29.9755 305.428 0
2753
root -5.55679 13.9874 -28.3927 1242.03 -65.195 -161.086
lfemur -59.4536 42.9542 -6.34936
ltibia 67.8166 0 0
lfoot -2.41643 -1.28748 0
ltoes -31.3631 0 0
rfemur -30.8884 -18.5776 21.6943
rtibia 81.6878 0 0
rfoot -34.9879 -24.7396 0
rtoes -14.6205 0 0
lowerback 15.7474 5.82366 0.54476
upperback -4.01972 8.12799 1.48248
thorax -13.4736 3.80413 -0.859251
lowerneck -2.39634 9.61786 2.06083
upperneck 7.48883 12.5796 1.98391
head 2.79658 6.35004 0.686489
lclavicle 2.50114e-14 -6.18425e-15 0
lhumerus 3.56447 10.6794 83.9462
lradius 94.7835 0 0
lwrist -19.1959 0 0
lhand -39.8046 387.608 0
lfingers 7.12502 0 0
lthumb -12.7794 -662.803 0
rclavicle 2.50114e-14 -6.18425e-15 0
rhumerus -57.8979 50.8791 -110.172
rradius 114.117 0 0
rwrist -84.6546 0 0
rhand 4.61002 -386.966 0
rfingers 7.12502 0 0
rthumb 29.998 305.446 0
2754
root -5.56496 13.982 -28.3973 1242.05 -65.2021 -161.096
lfemur -59.5099 42.9979 -6.35775
ltibia 67.9141 0 0
lfoot -2.45123 -1.33439 0
ltoes -31.3709 0 0
rfemur -30.8811 -18.5996 21.6794
rtibia 81.7409 0 0
rfoot -35.0526 -24.753 0
rtoes -14.6427 0 0
lowerback 15.7304 5.82342 0.534842
upperback -4.02878 8.12559 1.48133
thorax -13.4753 3.80388 -0.853212
lowerneck -2.39406 9.61726 2.06205
upperneck 7.50152 12.5784 1.98583
head 2.80044 6.34948 0.687225
lclavicle 2.54424e-14 -6.13053e-15 0
lhumerus 3.57013 10.6999 83.9447
lradius 94.7644 0 0
lwrist -19.2234 0 0
lhand -39.8024 387.606 0
lfingers 7.12502 0 0
lthumb -12.7772 -662.805 0
rclavicle 2.54424e-14 -6.13053e-15 0
rhumerus -57.9283 50.8431 -110.191
rradius 114.126 0 0
rwrist -84.6345 0 0
rhand 4.63408 -386.952 0
rfingers 7.12502 0 0
rthumb 30.0209 305.464 0
2755
root -5.57327 13.9764 -28.402 1242.08 -65.2094 -161.107
lfemur -59.5671 43.0427 -6.36561
ltibia 68.0143 0 0
lfoot -2.48719 -1.38252 0
ltoes -31.3791 0 0
rfemur -30.8736 -18.6218 21.6641
rtibia 81.7966 0 0
rfoot -35.1195 -24.767 0
rtoes -14.6642 0 0
lowerback 15.7129 5.82316 0.524668
upperback -4.03804 8.12312 1.48028
thorax -13.4769 3.80363 -0.846873
lowerneck -2.39188 9.61667 2.06334
upperneck 7.51486 12.5771 1.98768
head 2.80455 6.34893 0.687966
lclavicle 2.58597e-14 -6.07102e-15 0
lhumerus 3.57521 10.7209 83.9433
lradius 94.7455 0 0
lwrist -19.2506 0 0
lhand -39.8001 387.604 0
lfingers 7.12502 0 0
lthumb -12.775 -662.806 0
rclavicle 2.58597e-14 -6.07102e-15 0
rhumerus -57.9586 50.8069 -110.211
rradius 114.134 0 0
rwrist -84.6146 0 0
rhand 4.65868 -386.938 0
rfingers 7.12502 0 0
rthumb 30.0444 305.482 0
2756
root -5.5817 13.9705 -28.4069 1242.1 -65.2169 -161.118
lfemur -59.6251 43.0885 -6.37288
ltibia 68.1175 0 0
lfoot -2.52427 -1.43187 0
ltoes -31.3879 0 0
rfemur -30.8659 -18.644 21.6484
rtibia 81.855 0 0
rfoot -35.1888 -24.7819 0
rtoes -14.685 0 0
lowerback 15.6949 5.82289 0.514252
upperback -4.04747 8.1206 1.47932
thorax -13.4784 3.80339 -0.840233
lowerneck -2.38982 9.61608 2.0647
upperneck 7.52887 12.5758 1.98947
head 2.80892 6.34836 0.68871
lclavicle 2.62605e-14 -6.00586e-15 0
lhumerus 3.57968 10.7423 83.9418
lradius 94.7268 0 0
lwrist -19.2774 0 0
lhand -39.7977 387.603 0
lfingers 7.12502 0 0
lthumb -12.7727 -662.807 0
rclavicle 2.62605e-14 -6.00586e-15 0
rhumerus -57.9888 50.7706 -110.231
rradius 114.142 0 0
rwrist -84.5951 0 0
rhand 4.68383 -386.923 0
rfingers 7.12502 0 0
rthumb 30.0684 305.501 0
2757
root -5.59024 13.9644 -28.4119 1242.12 -65.2245 -161.13
lfemur -59.684 43.1353 -6.37952
ltibia 68.2234 0 0
lfoot -2.56247 -1.48244 0
ltoes -31.397 0 0
rfemur -30.858 -18.6662 21.6325
rtibia 81.916 0 0
rfoot -35.2603 -24.7976 0
rtoes -14.7049 0 0
lowerback 15.6763 5.8226 0.503609
upperback -4.05709 8.11801 1.47847
thorax -13.4799 3.80315 -0.833293
lowerneck -2.38789 9.6155 2.06612
upperneck 7.54358 12.5745 1.99118
head 2.81356 6.34779 0.689458
lclavicle 2.66421e-14 -5.93519e-15 0
lhumerus 3.58354 10.7642 83.9403
lradius 94.7082 0 0
lwrist -19.3036 0 0
lhand -39.7953 387.602 0
lfingers 7.12502 0 0
lthumb -12.7704 -662.807 0
rclavicle 2.66421e-14 -5.93519e-15 0
rhumerus -58.0187 50.7344 -110.25
rradius 114.15 0 0
rwrist -84.5759 0 0
rhand 4.70956 -386.908 0
rfingers 7.12502 0 0
rthumb 30.093 305.521 0
